<mxfile host="app.diagrams.net" modified="2022-02-17T09:19:49.476Z" agent="5.0 (Windows NT 10.0; Win64; x64) AppleWebKit/537.36 (KHTML, like Gecko) Chrome/98.0.4758.82 Safari/537.36" etag="ZPbPxBrQi6XDl2JXVxPS" version="16.5.6" type="github">
  <diagram id="49zp5q282DoWhBJulSRE" name="第 1 页">
    <mxGraphModel dx="1422" dy="804" grid="1" gridSize="10" guides="1" tooltips="1" connect="1" arrows="1" fold="1" page="1" pageScale="1" pageWidth="827" pageHeight="1169" background="none" math="0" shadow="0">
      <root>
        <mxCell id="0" />
        <mxCell id="1" parent="0" />
        <mxCell id="aSK7vlELNF1VxFCQDczd-10" style="edgeStyle=orthogonalEdgeStyle;rounded=0;orthogonalLoop=1;jettySize=auto;html=1;" edge="1" parent="1" source="tJwv_HR_MBIew1xUi3yw-6">
          <mxGeometry relative="1" as="geometry">
            <mxPoint x="414" y="440" as="targetPoint" />
          </mxGeometry>
        </mxCell>
        <mxCell id="aSK7vlELNF1VxFCQDczd-17" style="edgeStyle=orthogonalEdgeStyle;rounded=0;orthogonalLoop=1;jettySize=auto;html=1;exitX=0;exitY=0.75;exitDx=0;exitDy=0;entryX=1;entryY=0.079;entryDx=0;entryDy=0;entryPerimeter=0;" edge="1" parent="1" source="tJwv_HR_MBIew1xUi3yw-6" target="aSK7vlELNF1VxFCQDczd-2">
          <mxGeometry relative="1" as="geometry" />
        </mxCell>
        <mxCell id="tJwv_HR_MBIew1xUi3yw-6" value="&lt;span style=&quot;box-sizing: border-box ; color: rgb(44 , 62 , 80) ; font-weight: 600 ; font-family: &amp;quot;source sans pro&amp;quot; , &amp;quot;helvetica neue&amp;quot; , &amp;quot;arial&amp;quot; , sans-serif ; font-size: 15px ; word-spacing: 0.8px ; background-color: rgb(255 , 255 , 255)&quot;&gt;feaplat&lt;/span&gt;" style="rounded=1;whiteSpace=wrap;html=1;dashed=1;align=left;verticalAlign=top;labelPosition=center;verticalLabelPosition=middle;spacingTop=5;spacingLeft=10;" parent="1" vertex="1">
          <mxGeometry x="234" y="190" width="360" height="160" as="geometry" />
        </mxCell>
        <mxCell id="tJwv_HR_MBIew1xUi3yw-3" value="feapder爬虫" style="rounded=1;whiteSpace=wrap;html=1;" parent="1" vertex="1">
          <mxGeometry x="284" y="240" width="120" height="60" as="geometry" />
        </mxCell>
        <mxCell id="tJwv_HR_MBIew1xUi3yw-5" value="feapder爬虫" style="rounded=1;whiteSpace=wrap;html=1;" parent="1" vertex="1">
          <mxGeometry x="424" y="240" width="120" height="60" as="geometry" />
        </mxCell>
        <mxCell id="aSK7vlELNF1VxFCQDczd-9" style="edgeStyle=orthogonalEdgeStyle;rounded=0;orthogonalLoop=1;jettySize=auto;html=1;entryX=0.5;entryY=1;entryDx=0;entryDy=0;" edge="1" parent="1" source="aSK7vlELNF1VxFCQDczd-1" target="tJwv_HR_MBIew1xUi3yw-6">
          <mxGeometry relative="1" as="geometry">
            <Array as="points">
              <mxPoint x="414" y="400" />
              <mxPoint x="414" y="400" />
            </Array>
          </mxGeometry>
        </mxCell>
        <mxCell id="aSK7vlELNF1VxFCQDczd-14" style="edgeStyle=orthogonalEdgeStyle;rounded=0;orthogonalLoop=1;jettySize=auto;html=1;entryX=0.5;entryY=0;entryDx=0;entryDy=0;" edge="1" parent="1" source="aSK7vlELNF1VxFCQDczd-1" target="aSK7vlELNF1VxFCQDczd-12">
          <mxGeometry relative="1" as="geometry" />
        </mxCell>
        <mxCell id="aSK7vlELNF1VxFCQDczd-16" style="edgeStyle=orthogonalEdgeStyle;rounded=0;orthogonalLoop=1;jettySize=auto;html=1;exitX=1;exitY=0.5;exitDx=0;exitDy=0;entryX=0;entryY=0.5;entryDx=0;entryDy=0;" edge="1" parent="1" source="aSK7vlELNF1VxFCQDczd-1" target="aSK7vlELNF1VxFCQDczd-15">
          <mxGeometry relative="1" as="geometry" />
        </mxCell>
        <mxCell id="aSK7vlELNF1VxFCQDczd-1" value="kafka" style="rounded=1;whiteSpace=wrap;html=1;" vertex="1" parent="1">
          <mxGeometry x="234" y="440" width="360" height="70" as="geometry" />
        </mxCell>
        <mxCell id="aSK7vlELNF1VxFCQDczd-8" style="edgeStyle=orthogonalEdgeStyle;rounded=0;orthogonalLoop=1;jettySize=auto;html=1;entryX=0;entryY=0.5;entryDx=0;entryDy=0;" edge="1" parent="1" source="aSK7vlELNF1VxFCQDczd-2" target="aSK7vlELNF1VxFCQDczd-1">
          <mxGeometry relative="1" as="geometry" />
        </mxCell>
        <mxCell id="aSK7vlELNF1VxFCQDczd-2" value="任务调度" style="rounded=1;whiteSpace=wrap;html=1;" vertex="1" parent="1">
          <mxGeometry x="70" y="280" width="80" height="390" as="geometry" />
        </mxCell>
        <mxCell id="aSK7vlELNF1VxFCQDczd-13" style="edgeStyle=orthogonalEdgeStyle;rounded=0;orthogonalLoop=1;jettySize=auto;html=1;entryX=0.5;entryY=1;entryDx=0;entryDy=0;" edge="1" parent="1" source="aSK7vlELNF1VxFCQDczd-12" target="aSK7vlELNF1VxFCQDczd-1">
          <mxGeometry relative="1" as="geometry">
            <Array as="points">
              <mxPoint x="414" y="540" />
              <mxPoint x="414" y="540" />
            </Array>
          </mxGeometry>
        </mxCell>
        <mxCell id="aSK7vlELNF1VxFCQDczd-12" value="数据解析" style="rounded=1;whiteSpace=wrap;html=1;" vertex="1" parent="1">
          <mxGeometry x="234" y="590" width="360" height="70" as="geometry" />
        </mxCell>
        <mxCell id="aSK7vlELNF1VxFCQDczd-15" value="数据拼装 + 持久化" style="rounded=1;whiteSpace=wrap;html=1;" vertex="1" parent="1">
          <mxGeometry x="680" y="280" width="80" height="390" as="geometry" />
        </mxCell>
      </root>
    </mxGraphModel>
  </diagram>
</mxfile>
